<svg width="124" height="33" viewBox="0 0 124 33" fill="none" xmlns="http://www.w3.org/2000/svg">
<path d="M15.5307 0.403625C16.0689 -0.134805 16.9407 -0.134278 17.4788 0.403625L20.1581 3.08418C20.2925 3.21865 20.2925 3.43698 20.1581 3.57146L12.366 11.3674C12.2316 11.5018 12.0134 11.5018 11.8789 11.3674L9.19971 8.68681C8.66154 8.14838 8.66154 7.27561 9.19971 6.7377L15.5307 0.403625Z" fill="#1A8E46"/>
<path d="M16.2561 8.4668C16.3905 8.33233 16.6082 8.33286 16.7426 8.46733L20.1529 11.8793C20.2873 12.0138 20.2878 12.2316 20.1534 12.3661L19.5462 12.9736C18.7076 13.8126 17.6207 14.2915 16.5201 14.2899C15.4196 14.2883 14.3053 13.8058 13.4646 12.9646L12.8558 12.3555C12.7213 12.2211 12.7208 12.0033 12.8552 11.8688L16.2561 8.4668Z" fill="#A6DBAB"/>
<path d="M23.8169 6.75272C24.355 7.29115 24.355 8.16445 23.8169 8.70341L21.1355 11.3855C21.0011 11.52 20.7829 11.52 20.6479 11.3855L17.2355 7.97197C17.1011 7.83749 17.1011 7.61916 17.2355 7.48416L20.6479 4.07058C20.7824 3.93611 21.0006 3.93611 21.1355 4.07058L23.8163 6.75272H23.8169Z" fill="#1A8E46"/>
<path d="M0.403516 17.4776C-0.134652 16.9392 -0.134125 16.0669 0.403516 15.5285L3.08276 12.8479C3.21717 12.7135 3.43539 12.7135 3.5698 12.8479L11.3619 20.6438C11.4963 20.7783 11.4963 20.9966 11.3619 21.1311L8.68265 23.8117C8.14448 24.3501 7.27214 24.3501 6.73449 23.8117L0.403516 17.4776Z" fill="#1A8E46"/>
<path d="M8.44933 16.7635C8.31492 16.6291 8.31544 16.4113 8.44985 16.2768L11.8602 12.8648C11.9946 12.7303 12.2123 12.7298 12.3467 12.8643L12.9539 13.4718C13.7925 14.3108 14.2711 15.3982 14.2695 16.4993C14.268 17.6005 13.7857 18.7153 12.9449 19.5564L12.3361 20.1655C12.2017 20.3 11.984 20.3005 11.8496 20.166L8.44933 16.7635Z" fill="#A6DBAB"/>
<path d="M6.74264 9.18507C7.28081 8.64664 8.15368 8.64664 8.69238 9.18507L11.3732 11.8677C11.5076 12.0022 11.5076 12.2205 11.3732 12.3555L7.96129 15.7696C7.82688 15.9041 7.60866 15.9041 7.47373 15.7696L4.06182 12.3555C3.92741 12.2211 3.92741 12.0027 4.06182 11.8677L6.74264 9.1856V9.18507Z" fill="#1A8E46"/>
<path d="M17.4679 32.5968C16.9297 33.1353 16.0579 33.1347 15.5197 32.5968L12.8405 29.9163C12.706 29.7818 12.706 29.5635 12.8405 29.429L20.6326 21.6331C20.767 21.4986 20.9852 21.4986 21.1196 21.6331L23.7988 24.3136C24.337 24.8521 24.337 25.7248 23.7988 26.2627L17.4679 32.5968Z" fill="#1A8E46"/>
<path d="M16.7546 24.5467C16.6202 24.6812 16.4025 24.6807 16.2681 24.5462L12.8578 21.1342C12.7234 20.9997 12.7228 20.7819 12.8572 20.6474L13.4645 20.0399C14.3031 19.2009 15.3899 18.7221 16.4905 18.7236C17.5911 18.7252 18.7054 19.2078 19.5461 20.0489L20.1549 20.658C20.2893 20.7925 20.2899 21.0103 20.1554 21.1447L16.7546 24.5467Z" fill="#A6DBAB"/>
<path d="M9.18034 26.2542C8.64217 25.7158 8.64217 24.8425 9.18034 24.3035L11.8617 21.6214C11.9961 21.4869 12.2143 21.4869 12.3493 21.6214L15.7617 25.0349C15.8961 25.1694 15.8961 25.3877 15.7617 25.5227L12.3493 28.9363C12.2148 29.0708 11.9966 29.0708 11.8617 28.9363L9.18087 26.2542H9.18034Z" fill="#1A8E46"/>
<path d="M32.5967 15.527C33.1349 16.0654 33.1343 16.9376 32.5967 17.4761L29.9174 20.1566C29.783 20.2911 29.5648 20.2911 29.4304 20.1566L21.6383 12.3607C21.5039 12.2262 21.5039 12.0079 21.6383 11.8734L24.3176 9.19289C24.8557 8.65445 25.7281 8.65445 26.2657 9.19289L32.5967 15.527Z" fill="#1A8E46"/>
<path d="M24.5379 16.2521C24.6723 16.3866 24.6718 16.6044 24.5374 16.7389L21.127 20.1509C20.9926 20.2853 20.7749 20.2859 20.6405 20.1514L20.0333 19.5439C19.1947 18.7049 18.7161 17.6174 18.7177 16.5163C18.7193 15.4152 19.2016 14.3004 20.0423 13.4592L20.6511 12.8501C20.7855 12.7157 21.0032 12.7151 21.1376 12.8496L24.5379 16.2521Z" fill="#A6DBAB"/>
<path d="M26.2507 23.8163C25.7126 24.3547 24.8397 24.3547 24.301 23.8163L21.6202 21.1336C21.4858 20.9992 21.4858 20.7808 21.6202 20.6458L25.0321 17.2317C25.1665 17.0972 25.3847 17.0972 25.5197 17.2317L28.9316 20.6458C29.066 20.7803 29.066 20.9986 28.9316 21.1336L26.2507 23.8158V23.8163Z" fill="#1A8E46"/>
<path d="M53.8859 10.6823C51.3538 10.6823 48.8903 11.7542 48.7538 14.6054H51.7422C51.8561 13.6701 52.6089 13.2371 53.8866 13.2371C55.1644 13.2371 55.7573 13.7847 55.7573 14.674V15.3582H52.5184C50.0096 15.3582 48.3215 16.3848 48.3215 18.5058C48.3215 20.6269 49.8957 22.1098 52.6782 22.1098C53.91 22.1098 54.9366 21.7221 55.758 21.1971V21.836H58.7004V14.6733C58.7004 11.9134 56.602 10.6816 53.8874 10.6816L53.8859 10.6823ZM53.0419 19.6697C51.6276 19.6697 51.1713 19.0541 51.1713 18.4832C51.1713 18.0042 51.5363 17.5705 52.4483 17.5705H55.7558V18.8023C54.7519 19.4638 53.9991 19.669 53.0412 19.669L53.0419 19.6697Z" fill="black"/>
<path d="M61.1068 10.957V21.8376H64.0952V10.957H61.1068Z" fill="black"/>
<path d="M79.0437 21.8379H82.8988L78.1091 15.4739L82.3746 10.9573H78.5881L74.2313 15.6331V5.64258H72.7463C71.9164 5.64258 71.2436 6.31541 71.2436 7.1453V21.8379H74.232V19.5569L76.0567 17.641L79.0451 21.8379H79.0437Z" fill="black"/>
<path d="M84.3382 10.958V21.8386H87.3267V10.958H84.3382Z" fill="black"/>
<path d="M92.0741 18.0736L89.3141 18.0509C89.542 21.2212 91.9602 22.1112 94.355 22.1112C97.115 22.1112 99.2134 20.9248 99.2134 18.5073C99.2134 16.4088 97.64 15.6334 95.9519 15.337L93.99 15.0179C92.9408 14.8354 92.6443 14.3564 92.6443 13.946C92.6443 13.4211 93.1919 13.0334 94.3324 13.0334C95.3816 13.0334 96.3169 13.3524 96.3856 14.3337H99.1455C98.8943 11.2087 96.2943 10.6611 94.3324 10.6611C91.5725 10.6611 89.6792 12.0068 89.6792 14.2425C89.6792 16.2956 91.2987 17.1623 92.8955 17.4361L95.2451 17.8465C95.9978 17.983 96.3629 18.3481 96.3629 18.7818C96.3629 19.398 95.5649 19.6944 94.4244 19.6944C93.1466 19.6944 92.2573 19.3067 92.0748 18.075L92.0741 18.0736Z" fill="black"/>
<path d="M105.918 10.6823C103.385 10.6823 100.922 11.7542 100.785 14.6054H103.774C103.888 13.6701 104.641 13.2371 105.918 13.2371C107.196 13.2371 107.789 13.7847 107.789 14.674V15.3582H104.55C102.041 15.3582 100.353 16.3848 100.353 18.5058C100.353 20.6269 101.927 22.1098 104.71 22.1098C105.942 22.1098 106.968 21.7221 107.789 21.1971V21.836H110.731V14.6733C110.731 11.9134 108.633 10.6816 105.918 10.6816L105.918 10.6823ZM105.074 19.6697C103.659 19.6697 103.203 19.0541 103.203 18.4832C103.203 18.0042 103.568 17.5705 104.481 17.5705H107.788V18.8023C106.785 19.4638 106.032 19.669 105.074 19.669V19.6697Z" fill="black"/>
<path d="M119.125 10.6836C117.893 10.6836 116.867 11.0713 115.978 11.7788V10.9574H112.99V21.838H115.97V15.8985C115.97 14.521 117.086 13.4046 118.464 13.4046C119.841 13.4046 120.958 14.521 120.958 15.8985V21.838H123.938V15.9304C123.938 12.7367 122.022 10.6843 119.125 10.6843V10.6836Z" fill="black"/>
<path d="M43.3368 10.957V22.6357C43.3368 24.1476 42.8444 24.6103 41.1988 24.7525H41.0615V27.3575H41.4365V27.3561C45.3044 27.2761 46.3253 25.4989 46.3253 22.2479V10.957H43.3368Z" fill="black"/>
<path d="M62.6123 5.64258H64.0952V8.63104H61.1068V7.14813C61.1068 6.31682 61.7817 5.64258 62.6123 5.64258Z" fill="black"/>
<path d="M85.8438 5.64258H87.3267V8.63104H84.3382V7.14813C84.3382 6.31682 85.0132 5.64258 85.8438 5.64258Z" fill="black"/>
<path d="M44.8428 5.64258H46.3257V8.63104H43.3372V7.14813C43.3372 6.31682 44.0122 5.64258 44.8428 5.64258Z" fill="black"/>
</svg>
